<svg width="200" height="51" viewBox="0 0 200 51" fill="none" xmlns="http://www.w3.org/2000/svg">
<path d="M199.962 3.25585C199.625 1.31758 198.421 0.367499 196.342 0.163251C192.603 -0.204064 181.56 0.163251 178.817 0.163251H153.388C149.062 0.163251 106.328 0.444418 101.052 0.325135C95.7767 0.205852 34.1822 0.512659 30.1726 0.274172C26.1637 0.0356065 10.3357 0.0147034 8.12015 0.619401C7.19647 0.871536 6.88936 7.38475 5.84895 14.8991C5.37966 18.2897 4.86258 21.8841 4.42934 25.1992C3.57773 31.2674 -1.34779 50.5857 0.355423 50.9668C2.0978 51.3567 6.16389 48.2372 8.68109 45.7026C10.606 43.7644 15.0897 39.7296 17.0922 37.9382C30.4609 37.9379 49.5072 37.9118 51.8826 37.9118H185.647C189.512 37.9118 193.179 37.9118 194.972 36.6511C196.766 35.3903 197.342 27.8451 197.799 23.3304C198.256 18.8158 200.3 5.19412 199.962 3.25585Z" fill="#F9AA38"/>
<path d="M25.8639 15.6313C25.4713 16.5814 24.1685 17.6219 21.5178 17.26C21.2085 17.2177 21.5551 16.0594 21.7584 14.8973C21.9649 13.7168 22.0325 12.5325 22.2815 12.5097C22.7757 12.4645 24.2583 12.3288 25.0221 12.8716C25.7859 13.4145 26.2565 14.6813 25.8639 15.6313ZM33.7361 12.4086C33.3299 8.2812 30.009 7.0808 28.5786 6.77541C27.1481 6.47003 19.541 6.49401 17.9685 6.49401C16.3961 6.49401 15.8119 7.0808 15.3178 7.5588C14.8236 8.03672 14.5226 13.0779 14.2313 14.4847C13.9534 15.8263 12.3077 26.8962 12.083 27.801C11.8584 28.7058 11.1395 30.2893 11.6236 30.8321C12.1078 31.375 17.8337 31.1066 18.7323 31.1066C19.6308 31.1066 19.5577 29.9896 19.6702 29.2765C19.7827 28.5635 20.5128 23.9364 20.5859 23.4732C20.6589 23.01 23.2426 23.4732 24.8751 23.3885C26.5076 23.3038 29.1554 22.5079 30.7286 20.9705C32.3016 19.433 34.1423 16.5361 33.7361 12.4086Z" fill="#094702"/>
<path d="M36.8683 7.4376C36.9791 6.73816 37.3782 6.4962 38.9057 6.49659C40.4332 6.49707 42.4549 6.4962 43.1288 6.49659C43.8027 6.49707 44.7612 6.61942 44.6626 7.24787C44.5639 7.87631 43.0666 17.4179 42.8491 18.8034C42.6317 20.1889 41.594 23.7064 43.7991 24.2849C46.0042 24.8634 47.6635 23.8111 48.2715 21.555C48.8795 19.2988 50.0259 10.5424 50.23 9.24152C50.4342 7.94061 50.4969 6.49707 51.2607 6.49707C52.0244 6.49707 54.181 6.57706 55.7984 6.49651C56.9345 6.43987 58.4784 6.33968 58.3624 7.08386C58.2464 7.82803 56.5295 18.8428 56.3935 19.7148C56.2576 20.5869 55.3053 26.6231 52.362 28.7291C49.4186 30.8352 46.9642 31.5809 43.7886 31.502C40.6129 31.4232 38.217 30.7857 36.2251 28.7293C34.2333 26.673 34.433 22.9779 34.6373 21.5104C34.8417 20.0429 36.7494 8.1884 36.8683 7.4376Z" fill="#094702"/>
<path d="M60.3665 7.89572C60.4463 7.38214 60.496 6.49375 61.7989 6.49375C63.1017 6.49375 68.7177 6.4151 69.8408 6.45438C70.9641 6.49375 78.422 6.49375 78.7365 6.49375C79.0509 6.49375 79.5039 7.23832 79.0753 8.53931C78.6466 9.84022 78.8048 11.8676 78.4786 12.3375C78.1524 12.8075 77.9278 12.8075 77.3437 12.8075C76.7597 12.8075 73.3117 12.5572 73.0756 12.8075C72.8395 13.0576 72.3186 16.3797 72.1667 17.3485C72.0147 18.3173 70.2189 29.7705 70.1635 30.1236C70.1082 30.4767 69.8408 31.1064 69.2119 31.1064H63.4612C62.7424 31.1064 62.2819 30.9134 62.3868 30.2443C62.4917 29.5753 64.2699 18.7526 64.3597 18.3002C64.4496 17.8478 65.0786 13.4595 65.1235 13.2332C65.1684 13.007 64.809 12.8075 64.225 12.8075C63.6409 12.8075 60.2767 13.0754 59.9568 12.8075C59.637 12.5395 59.749 11.8263 59.7998 11.5034C59.8504 11.1805 60.282 8.43943 60.3665 7.89572Z" fill="#094702"/>
<path d="M88.1538 8.61717C88.4042 7.82203 88.3051 6.67804 89.4732 6.49572C90.6413 6.31348 93.9659 6.49572 95.0442 6.49572C96.1224 6.49572 98.509 6.25905 98.5734 7.26191C98.6379 8.26469 99.1781 16.6735 99.2188 17.3071C99.2595 17.9408 99.0684 19.5308 99.4599 19.5046C99.8514 19.4785 102.149 12.43 102.307 12.0145C102.465 11.5989 103.783 8.13184 103.92 7.77083C104.057 7.40983 104.389 6.49572 104.973 6.49572H110.679C111.218 6.49572 114.35 6.23759 114.263 7.08259C114.177 7.92751 113.339 16.127 113.251 16.9868C113.163 17.8465 111.957 29.6504 111.915 30.0579C111.874 30.4654 111.757 31.1084 111.173 31.1084H105.422C104.883 31.1084 104.216 30.9327 104.264 30.5901C104.311 30.2474 105.198 24.093 105.377 23.0072C105.557 21.9215 106.276 17.4879 106.051 17.4879C105.827 17.4879 103.705 23.7101 103.443 24.4087C103.181 25.1074 101.212 30.3633 101.11 30.636C101.008 30.9088 100.525 31.1084 100.076 31.1084H94.7746C94.3703 31.1084 94.1567 30.559 94.1736 30.0179C94.1905 29.4766 93.6514 21.65 93.6963 21.1072C93.7413 20.5642 93.7413 17.0807 93.4268 17.3069C93.1123 17.5331 92.5375 22.4881 92.3935 23.12C91.9681 24.9858 91.1693 30.0336 91.1122 30.3562C91.0551 30.6788 90.9109 31.1084 90.4616 31.1084H83.9471C83.6776 31.1084 83.4597 30.6544 83.5965 30.0117C83.7334 29.3691 85.4746 20.519 85.6992 19.4785C85.9239 18.438 87.9126 9.38273 88.1538 8.61717Z" fill="#094702"/>
<path d="M117.541 16.2621C117.745 14.8494 118.649 7.95936 118.912 7.52018C119.175 7.08099 119.759 6.49412 120.927 6.49412H132.293C133.237 6.49412 135.445 6.2666 135.734 7.08099C136.022 7.8953 135.111 10.9548 135.002 11.6304C134.893 12.3059 134.63 12.6604 134.001 12.8791C133.372 13.098 126.273 12.4194 125.779 13.098C125.601 13.3427 124.978 15.4831 125.378 15.4831H132.833C133.372 15.4831 133.841 15.7322 133.759 16.2621C133.677 16.792 133.059 20.7679 132.993 21.193C132.927 21.618 132.383 22.0104 131.709 22.0556C131.035 22.1008 124.791 21.5579 124.358 22.0556C124.226 22.2076 123.857 23.9259 124.032 24.1896C124.206 24.4534 124.521 24.6504 125.15 24.6504H132.428C132.922 24.6504 133.267 24.9413 133.165 25.58C133.064 26.2188 132.62 29.0083 132.518 29.6478C132.416 30.2874 132.248 31.1068 131.664 31.1068H119.264C118.186 31.1068 115.481 31.4642 115.301 30.8322C115.195 30.457 116.03 26.5343 116.209 25.4487C116.389 24.3629 117.384 17.3445 117.541 16.2621Z" fill="#094702"/>
<path d="M143.943 14.7783C144.195 13.1774 144.867 8.05473 144.925 7.68071C144.984 7.30668 145.143 6.4975 146.042 6.4975H149.456C150.624 6.4975 151.976 6.36047 152.376 6.72242C152.777 7.08429 152.451 9.1629 152.307 10.0806C152.163 10.9981 150.714 18.8016 150.489 20.1136C150.265 21.4255 149.472 28.1498 149.352 28.9165C149.231 29.6833 149.253 31.1102 148.209 31.1102H142.313C141.684 31.1102 141.276 30.9422 141.401 30.1478C141.525 29.3533 143.548 17.2986 143.943 14.7783Z" fill="#094702"/>
<path d="M157.193 8.94035C157.415 8.28579 157.498 6.4971 158.082 6.4971C158.666 6.4971 161.182 6.76281 162.125 6.7176C163.069 6.6724 164.858 6.29049 165.45 6.4971C166.042 6.70371 166.421 7.8197 166.802 8.94035C167.183 10.061 169.783 18.0074 170.22 18.9996C170.465 19.5572 170.659 19.2084 170.706 18.7907C170.753 18.3731 171.95 10.2637 172.082 9.46371C172.213 8.66383 172.369 7.12783 172.818 6.81243C173.267 6.4971 174.435 6.4971 175.109 6.4971C175.783 6.4971 178.569 6.72202 179.153 6.72202C179.737 6.72202 180.027 7.00374 179.922 7.67281C179.817 8.34188 178.115 16.8263 177.985 18.8392C177.854 20.852 176.445 29.8309 176.372 30.3002C176.298 30.7694 176.053 31.1097 175.424 31.1097H168.568C168.168 31.1097 167.876 29.7946 167.562 29.2518C167.247 28.7089 164.003 18.5419 163.608 18.1131C163.213 17.6843 163.011 18.3261 162.925 18.9996C162.84 19.673 161.469 29.7903 161.404 30.2014C161.339 30.6126 161.272 31.1097 160.688 31.1097C160.104 31.1097 155.162 31.3391 154.668 31.1097C154.173 30.8804 153.768 30.7755 153.914 29.8416C154.061 28.9078 155.378 21.1989 155.602 20.2037C155.827 19.2084 156.979 9.57526 157.193 8.94035Z" fill="#094702"/>
<path d="M182.984 14.728C183.098 13.5096 183.455 8.2193 183.795 7.64987C184.135 7.08036 184.09 6.49357 185.573 6.49357C187.056 6.49357 188.538 6.80889 189.661 6.80889C190.785 6.80889 191.947 6.7771 191.748 7.77207C191.548 8.76712 190.157 15.7124 189.947 16.7561C189.738 17.7998 189.261 21.4211 188.922 21.8738C188.583 22.3264 188.403 22.581 187.774 22.581H182.653C182.085 22.581 182.204 21.5469 182.27 20.9665C182.337 20.3861 182.897 15.671 182.984 14.728Z" fill="#094702"/>
<path d="M184.406 23.786C185.696 23.6584 188.289 23.4205 188.728 25.657C189.167 27.8936 188.528 30.1296 186.991 30.8019C185.455 31.4741 184.259 31.8133 182.085 31.2107C179.912 30.608 180.287 27.5307 180.64 26.7496C180.993 25.9687 182.026 24.0217 184.406 23.786Z" fill="#094702"/>
</svg>
